<svg xmlns="http://www.w3.org/2000/svg" width="960" height="604" viewBox="0 0 960 604" xmlns:xlink="http://www.w3.org/1999/xlink" role="img" artist="Katerina Limpitsouni" source="https://undraw.co/"><g transform="translate(-486.299 -105)"><path d="M377.53,314.457a9.994,9.994,0,0,0,0,19.987H503.151v-4.36a18.71,18.71,0,0,1,8.421-15.629Z" transform="translate(294.392 61.519)" fill="#e6e6e6"/><path d="M477.508,300.444H435.035a9.994,9.994,0,0,1,0-19.987h42.473a9.994,9.994,0,1,1,0,19.987Z" transform="translate(308.722 53.116)" fill="#e6e6e6"/><path d="M425.676,243.444H260.78a9.994,9.994,0,1,1,0-19.987h164.9a9.994,9.994,0,0,1,0,19.987Z" transform="translate(265.295 39.028)" fill="#e6e6e6"/><path d="M339.516,209.444H318.28a9.994,9.994,0,1,1,0-19.987h21.237a9.994,9.994,0,0,1,0,19.987Z" transform="translate(279.625 30.625)" fill="#e6e6e6"/><path d="M510.341,532.88H354.891a21.261,21.261,0,0,1-21.237-21.237v-245.9a21.261,21.261,0,0,1,21.237-21.237H603.2a21.261,21.261,0,0,1,21.237,21.237v60.946h-2.5V265.748A18.759,18.759,0,0,0,603.2,247.01H354.891a18.76,18.76,0,0,0-18.738,18.738v245.9a18.759,18.759,0,0,0,18.738,18.738h155.45Z" transform="translate(285.948 43.975)" fill="#ccc"/><path d="M361.5,405.877H248.182a21.261,21.261,0,0,1-21.237-21.237V184.693a21.261,21.261,0,0,1,21.237-21.237H450.156a21.261,21.261,0,0,1,21.237,21.237V265.96h-2.5V184.693a18.759,18.759,0,0,0-18.738-18.738H248.182a18.759,18.759,0,0,0-18.738,18.738V384.641a18.759,18.759,0,0,0,18.738,18.738H361.5Z" transform="translate(259.354 24.336)" fill="#ccc"/><path d="M739.537,314.457a18.709,18.709,0,0,1,8.419,15.628v4.36H873.577a9.994,9.994,0,1,0,0-19.987Z" transform="translate(387.099 61.52)" fill="#e6e6e6"/><path d="M747.331,290.45a10.005,10.005,0,0,1,9.994-9.994H799.8a9.994,9.994,0,0,1,0,19.987H757.325A10.005,10.005,0,0,1,747.331,290.45Z" transform="translate(389.042 53.116)" fill="#e6e6e6"/><path d="M823.587,233.45a10.005,10.005,0,0,1,9.994-9.994h164.9a9.994,9.994,0,0,1,0,19.987h-164.9a10.005,10.005,0,0,1-9.994-9.994Z" transform="translate(408.046 39.028)" fill="#e6e6e6"/><path d="M881.087,199.45a10.005,10.005,0,0,1,9.994-9.994h21.237a9.994,9.994,0,0,1,0,19.987H891.081A10.005,10.005,0,0,1,881.087,199.45Z" transform="translate(422.376 30.625)" fill="#e6e6e6"/><path d="M770.043,532.88h155.45a21.261,21.261,0,0,0,21.237-21.237v-245.9a21.261,21.261,0,0,0-21.237-21.237H677.181a21.261,21.261,0,0,0-21.237,21.237v60.946h2.5V265.748a18.759,18.759,0,0,1,18.738-18.738H925.492a18.759,18.759,0,0,1,18.738,18.738v245.9a18.759,18.759,0,0,1-18.738,18.738H770.043Z" transform="translate(366.267 43.975)" fill="#ccc"/><path d="M909.642,405.877h113.315a21.261,21.261,0,0,0,21.237-21.237V184.693a21.261,21.261,0,0,0-21.237-21.237H820.983a21.26,21.26,0,0,0-21.237,21.237V265.96h2.5V184.693a18.759,18.759,0,0,1,18.738-18.738h201.975a18.76,18.76,0,0,1,18.738,18.738V384.641a18.76,18.76,0,0,1-18.738,18.738H909.642Z" transform="translate(402.104 24.336)" fill="#ccc"/><path d="M794.845,309.967H495.333A21.279,21.279,0,0,0,474.1,331.2V627.879a21.259,21.259,0,0,0,21.237,21.237H794.845a21.259,21.259,0,0,0,21.237-21.237V331.2a21.259,21.259,0,0,0-21.237-21.237Zm18.738,317.913a18.761,18.761,0,0,1-18.738,18.738H495.333A18.761,18.761,0,0,1,476.6,627.879V331.2a18.767,18.767,0,0,1,18.738-18.738H794.845A18.761,18.761,0,0,1,813.583,331.2Z" transform="translate(320.948 59.884)" fill="#3f3d56"/><path d="M764.31,406.444H511.969a9.994,9.994,0,0,1,0-19.987H764.31a9.994,9.994,0,1,1,0,19.987Z" transform="translate(327.895 79.315)" fill="#d6d6e3"/><path d="M678.151,372.444H569.469a9.994,9.994,0,0,1,0-19.987H678.151a9.994,9.994,0,0,1,0,19.987Z" transform="translate(342.226 70.912)" fill="#6c63ff"/><path d="M620.151,454.444H511.469a9.994,9.994,0,1,1,0-19.987H620.151a9.994,9.994,0,0,1,0,19.987Z" transform="translate(327.771 91.179)" fill="#6c63ff"/><path d="M620.151,489.444H511.469a9.994,9.994,0,1,1,0-19.987H620.151a9.994,9.994,0,0,1,0,19.987Z" transform="translate(327.771 99.829)" fill="#6c63ff"/><path d="M620.151,524.444H511.469a9.994,9.994,0,1,1,0-19.987H620.151a9.994,9.994,0,1,1,0,19.987Z" transform="translate(327.771 108.354)" fill="#6c63ff"/><ellipse cx="18.65" cy="18.65" rx="18.65" ry="18.65" transform="translate(1064.82 516.884)" fill="#6c63ff"/><path d="M704.765,450.91a1.935,1.935,0,0,1-1.164-.387l-.021-.016-4.383-3.353a1.948,1.948,0,1,1,2.37-3.092l2.839,2.177,6.708-8.752a1.947,1.947,0,0,1,2.73-.361h0l-.042.058.043-.058a1.949,1.949,0,0,1,.36,2.73l-7.891,10.29a1.948,1.948,0,0,1-1.549.76Z" transform="translate(376.856 91.746)" fill="#fff"/><path d="M330.569,155.156a28.988,28.988,0,1,1,28.988-28.988,28.988,28.988,0,0,1-28.988,28.988Zm0-55.477a26.489,26.489,0,1,0,26.489,26.489A26.489,26.489,0,0,0,330.569,99.68Z" transform="translate(277.954 7.819)" fill="#6c63ff"/><path d="M324.464,133.065a2.877,2.877,0,0,1-1.731-.575l-.031-.023-6.519-4.987a2.9,2.9,0,1,1,3.525-4.6l4.222,3.238,9.978-13.017a2.9,2.9,0,0,1,4.06-.536h0l-.062.086.064-.086a2.9,2.9,0,0,1,.536,4.061l-11.736,15.3a2.9,2.9,0,0,1-2.3,1.13Z" transform="translate(281.311 11.504)" fill="#6c63ff"/><path d="M477.764,236.156a28.988,28.988,0,1,1,28.988-28.988,28.987,28.987,0,0,1-28.988,28.988Zm0-55.477a26.489,26.489,0,1,0,26.489,26.489,26.489,26.489,0,0,0-26.489-26.489Z" transform="translate(314.638 27.827)" fill="#6c63ff"/><path d="M471.66,214.065a2.877,2.877,0,0,1-1.731-.575l-.031-.023-6.519-4.987a2.9,2.9,0,1,1,3.525-4.6l4.222,3.238L481.1,194.1a2.9,2.9,0,0,1,4.06-.536h0l-.062.086.064-.086a2.9,2.9,0,0,1,.536,4.061l-11.736,15.3a2.9,2.9,0,0,1-2.3,1.13Z" transform="translate(317.994 31.493)" fill="#6c63ff"/><ellipse cx="18.65" cy="18.65" rx="18.65" ry="18.65" transform="translate(1064.82 560.533)" fill="#6c63ff"/><path d="M704.765,485.91a1.935,1.935,0,0,1-1.164-.387l-.021-.016-4.383-3.353a1.948,1.948,0,1,1,2.37-3.092l2.839,2.177,6.708-8.752a1.947,1.947,0,0,1,2.73-.36h0l-.042.058.043-.058a1.949,1.949,0,0,1,.36,2.73l-7.891,10.29a1.948,1.948,0,0,1-1.549.76Z" transform="translate(376.856 100.398)" fill="#fff"/><ellipse cx="18.65" cy="18.65" rx="18.65" ry="18.65" transform="translate(1064.82 604.154)" fill="#6c63ff"/><path d="M704.765,520.981a1.934,1.934,0,0,1-1.164-.387l-.021-.016-4.383-3.353a1.948,1.948,0,1,1,2.37-3.091l2.839,2.177,6.708-8.752a1.947,1.947,0,0,1,2.73-.361h0l-.042.058.043-.058a1.949,1.949,0,0,1,.36,2.73l-7.891,10.29a1.948,1.948,0,0,1-1.549.759Z" transform="translate(376.856 108.937)" fill="#fff"/><path d="M616.706,301.156c-19.674-.335-28.615-15.263-28.614-28.99s8.943-28.653,28.573-28.985h.042c19.632.335,28.573,15.262,28.572,28.989S636.337,300.824,616.706,301.156Zm-.02-55.477c-17.929.314-26.095,13.947-26.1,26.487s8.171,26.185,26.116,26.492c17.9-.3,26.074-13.943,26.075-26.487S634.615,246,616.686,245.68Z" transform="translate(349.357 43.883)" fill="#6c63ff"/><path d="M618.986,270.148c5.014,8.711-8.75,12.113-14.016,6.866l1.319-2.819c8.562,7.4,16.106-5.415,3.028-4.2V266.91c11.976.966,5.249-11.089-2.728-3.957l-1.289-2.818c6.5-6.748,21.1,1.412,10.793,8.155a5.136,5.136,0,0,1,2.893,1.859Z" transform="translate(353.563 47.468)" fill="#6c63ff"/><path d="M757.764,236.156a28.988,28.988,0,1,1,28.988-28.988,28.987,28.987,0,0,1-28.988,28.988Zm0-55.477a26.489,26.489,0,1,0,26.49,26.489,26.489,26.489,0,0,0-26.49-26.489Z" transform="translate(384.418 27.827)" fill="#090814"/><path d="M761.637,210.021h-3.028v4.167h-3.778v-4.167h-9.294v-2.878l9.984-14.3h3.088v14.151h3.028Zm-6.806-3.028v-8.125l-5.637,8.125Z" transform="translate(388.594 31.462)" fill="#090814"/><path d="M903.37,155.156a28.988,28.988,0,1,1,28.988-28.988,28.988,28.988,0,0,1-28.988,28.988Zm0-55.477a26.489,26.489,0,1,0,26.489,26.489A26.489,26.489,0,0,0,903.37,99.68Z" transform="translate(420.705 7.819)" fill="#090814"/><path d="M903.406,120.305a5.953,5.953,0,0,1,2.368,2.4,7.321,7.321,0,0,1,.839,3.552,7.073,7.073,0,0,1-.959,3.7,6.423,6.423,0,0,1-2.758,2.488,9.329,9.329,0,0,1-4.167.884,12.009,12.009,0,0,1-3.958-.675,9.19,9.19,0,0,1-3.208-1.813l1.289-2.819a9.706,9.706,0,0,0,5.936,2.219,3.865,3.865,0,0,0,3.043-6.7,4.015,4.015,0,0,0-2.923-1.064,6.065,6.065,0,0,0-2.369.465,5.6,5.6,0,0,0-1.949,1.364h-2.338V111.746h13.371v3H896.03v5.816a6.628,6.628,0,0,1,3.837-1.109,7.132,7.132,0,0,1,3.538.855Z" transform="translate(424.986 11.449)" fill="#090814"/></g></svg>